{"title":"Transformers Age of Extinction 2014 3D 1080p BluRay x264 SPRiNTE","uid":11136900,"size":12074179430,"categoryP":"video","categoryS":"3d","magnet":"?xt=urn:btih:2181afe5866751edd96fbdbed0cf4caca70c299b&amp;dn=Transformers+Age+of+Extinction+2014+3D+1080p+BluRay+x264+SPRiNTE&amp;tr=udp%3A%2F%2Ftracker.openbittorrent.com%3A80&amp;tr=udp%3A%2F%2Fopen.demonii.com%3A1337&amp;tr=udp%3A%2F%2Ftracker.coppersurfer.tk%3A6969&amp;tr=udp%3A%2F%2Fexodus.desync.com%3A6969","seeders":4,"leechers":2,"uploader":"Alemao99","files":8,"time":1412119403,"description":"Some years after the big confrontation between Autobots and Decepticons in Chicago, the giant alien robots disappeared. They are currently hunted by humans, who do not wish to go through trouble again. When Cade (Mark Wahlberg) finds an abandoned truck, he could never imagine that the vehicle is actually Optimus Prime, the Autobot leader. Much less than by helping to bring it back to life, Cade and his daughter Tessa (Nicola Peltz) enter in the crosshairs of the American authorities. \n\nTitle in Brazil: Transformers 4 - The Age of Extinction \nOriginal title: Transformers: Age of Extinction \nRelease Year: 2014 \nGenre: Action \nCountry of Origin: USA / China \nDuration: 166 minutes \nDirector: Michael Bay \nIMDB Link: http://www.imdb.com/title/tt2109248/ \n\nSize: 11:24 GB \nFile Extension: .MKV \nVideo Quality: Bluray - 3D \nVideo Codec: H.264 / AVC \nAudio Codec: AC3 5.1 \nResolution: 1920 x 1016 \nAudio Language: Portuguese / English \nSubtitles: Portuguese \n\ni.imgur.com/Dh1bUr3.png \ni.imgur.com/COhVxt5.png\n\n\nComplete name: Transformers.Age.of.Extinction2014.3D.1080p.BluRay.x264.SPRiNTER.DUAL-LAPUMiA.mkv\n\nFormat                                   : Matroska\nFormat version                           : Version 4 / Version 2\nFile size                                : 11.2 GiB\nDuration                                 : 2h 45mn\nOverall bit rate                         : 9 730 Kbps\nEncoded date                             : UTC 2014-09-19 17:46:53\nWriting application                      : mkvmerge v7.2.0 ('On Every Street') 64bit built on Sep 13 2014 15:52:10\nWriting library                          : libebml v1.3.0 + libmatroska v1.4.1\nDURATION                                 : 02:45:07.328000000\nNUMBER_OF_FRAMES                         : 309604\nNUMBER_OF_BYTES                          : 554810368\n_STATISTICS_WRITING_APP                  : mkvmerge v7.2.0 ('On Every Street') 64bit built on Sep 13 2014 15:52:10\n_STATISTICS_WRITING_DATE_UTC             : 2014-09-19 17:46:53\n_STATISTICS_TAGS                         : BPS DURATION NUMBER_OF_FRAMES NUMBER_OF_BYTES\n\nVideo\nID                                       : 1\nFormat                                   : AVC\nFormat/Info                              : Advanced Video Codec\nFormat profile                           : &lt;a class=&quot;__cf_email__&quot; href=&quot;/cdn-cgi/l/email-protection&quot; data-cfemail=&quot;8ac2e3ede2cac6bea4bb&quot;&gt;[email&amp;#160;protected]&lt;/a&gt;&lt;script cf-hash='f9e31' type=&quot;text/javascript&quot;&gt;\n/* &lt;![CDATA[ */!function(){try{var t=&quot;currentScript&quot;in document?document.currentScript:function(){for(var t=document.getElementsByTagName(&quot;script&quot;),e=t.length;e--;)if(t[e].getAttribute(&quot;cf-hash&quot;))return t[e]}();if(t&amp;&amp;t.previousSibling){var e,r,n,i,c=t.previousSibling,a=c.getAttribute(&quot;data-cfemail&quot;);if(a){for(e=&quot;&quot;,r=parseInt(a.substr(0,2),16),n=2;a.length-n;n+=2)i=parseInt(a.substr(n,2),16)^r,e+=String.fromCharCode(i);e=document.createTextNode(e),c.parentNode.replaceChild(e,c)}}}catch(u){}}();/* ]]&gt; */&lt;/script&gt;\nFormat settings, CABAC                   : Yes\nFormat settings, ReFrames                : 4 frames\nCodec ID                                 : V_MPEG4/ISO/AVC\nDuration                                 : 2h 45mn\nBit rate                                 : 8 835 Kbps\nWidth                                    : 1 920 pixels\nHeight                                   : 1 016 pixels\nDisplay aspect ratio                     : 1.890\nFrame rate                               : 23.976 fps\nColor space                              : YUV\nChroma subsampling                       : 4:2:0\nBit depth                                : 8 bits\nScan type                                : Progressive\nBits/(Pixel*Frame)                       : 0.189\nStream size                              : 9.97 GiB (89%)\nWriting library                          : x264 core 142 r2479 dd79a61\nEncoding settings                        : cabac=1 / ref=4 / deblock=1:0:0 / analyse=0x3:0x133 / me=umh / subme=7 / psy=1 / psy_rd=1.00:0.00 / mixed_ref=1 / me_range=16 / chroma_me=1 / trellis=1 / 8x8dct=1 / cqm=0 / deadzone=21,11 / fast_pskip=0 / chroma_qp_offset=-2 / threads=18 / lookahead_threads=3 / sliced_threads=0 / nr=0 / decimate=1 / interlaced=0 / bluray_compat=0 / constrained_intra=0 / bframes=3 / b_pyramid=2 / b_adapt=1 / b_bias=0 / direct=1 / weightb=1 / open_gop=0 / weightp=2 / keyint=250 / keyint_min=23 / scenecut=40 / intra_refresh=0 / rc_lookahead=40 / rc=2pass / mbtree=1 / bitrate=8835 / ratetol=1.0 / qcomp=0.60 / qpmin=0 / qpmax=69 / qpstep=4 / cplxblur=20.0 / qblur=0.5 / ip_ratio=1.40 / aq=1:1.00\nLanguage                                 : English\nDefault                                  : Yes\nForced                                   : No\nDURATION                                 : 02:45:07.314000000\nNUMBER_OF_FRAMES                         : 237538\nNUMBER_OF_BYTES                          : 10937520568\n_STATISTICS_WRITING_APP                  : mkvmerge v7.2.0 ('On Every Street') 64bit built on Sep 13 2014 15:52:10\n_STATISTICS_WRITING_DATE_UTC             : 2014-09-19 17:46:53\n_STATISTICS_TAGS                         : BPS DURATION NUMBER_OF_FRAMES NUMBER_OF_BYTES\n\nAudio #1\nID                                       : 2\nFormat                                   : AC-3\nFormat/Info                              : Audio Coding 3\nMode extension                           : CM (complete main)\nFormat settings, Endianness              : Big\nCodec ID                                 : A_AC3\nDuration                                 : 2h 45mn\nBit rate mode                            : Constant\nBit rate                                 : 448 Kbps\nChannel(s)                               : 6 channels\nChannel positions                        : Front: L C R, Side: L R, LFE\nSampling rate                            : 48.0 KHz\nBit depth                                : 16 bits\nCompression mode                         : Lossy\nStream size                              : 529 MiB (5%)\nTitle                                    : ptbr lapumia\nLanguage                                 : Portuguese\nDefault                                  : Yes\nForced                                   : Yes\n\nAudio #2\nID                                       : 3\nFormat                                   : AC-3\nFormat/Info                              : Audio Coding 3\nMode extension                           : CM (complete main)\nFormat settings, Endianness              : Big\nCodec ID                                 : A_AC3\nDuration                                 : 2h 45mn\nBit rate mode                            : Constant\nBit rate                                 : 448 Kbps\nChannel(s)                               : 6 channels\nChannel positions                        : Front: L C R, Side: L R, LFE\nSampling rate                            : 48.0 KHz\nBit depth                                : 16 bits\nCompression mode                         : Lossy\nStream size                              : 529 MiB (5%)\nTitle                                    : eng\nLanguage                                 : English\nDefault                                  : No\nForced                                   : No\n\n\n\n\nSEED PLEASE\n\nENJOY...\n\n\n\n=====================================================\nW W W . H D - E L I T E . N E T (More download links)\n=====================================================\t","torrent":{"xt":"urn:btih:2181afe5866751edd96fbdbed0cf4caca70c299b","amp;dn":"Transformers+Age+of+Extinction+2014+3D+1080p+BluRay+x264+SPRiNTE","amp;tr":["udp%3A%2F%2Ftracker.openbittorrent.com%3A80","udp%3A%2F%2Fopen.demonii.com%3A1337","udp%3A%2F%2Ftracker.coppersurfer.tk%3A6969","udp%3A%2F%2Fexodus.desync.com%3A6969"],"infoHash":"2181afe5866751edd96fbdbed0cf4caca70c299b","infoHashBuffer":{"type":"Buffer","data":[33,129,175,229,134,103,81,237,217,111,189,190,208,207,76,172,167,12,41,155]},"announce":[],"urlList":[]}}